<?xml version="1.0" encoding="utf-8"?>
<!-- Generator: Adobe Illustrator 24.0.2, SVG Export Plug-In . SVG Version: 6.00 Build 0)  -->
<svg version="1.1" id="Ñëîé_5" xmlns="http://www.w3.org/2000/svg" xmlns:xlink="http://www.w3.org/1999/xlink" x="0px" y="0px"
	 viewBox="0 0 325 288.9" style="enable-background:new 0 0 325 288.9;" xml:space="preserve">
<style type="text/css">
	.st0{fill:url(#SVGID_1_);}
	.st1{fill:url(#SVGID_2_);}
	.st2{fill:url(#SVGID_3_);}
	.st3{fill:url(#SVGID_4_);}
	.st4{fill:url(#SVGID_5_);}
	.st5{fill:url(#SVGID_6_);}
	.st6{fill:url(#SVGID_7_);}
	.st7{fill:#EEFDFF;}
	.st8{fill:url(#SVGID_8_);}
	.st9{fill:url(#SVGID_9_);}
	.st10{fill:url(#SVGID_10_);}
	.st11{fill:url(#SVGID_11_);}
	.st12{fill:#FFFFFF;}
	.st13{fill:url(#SVGID_12_);}
	.st14{fill:url(#SVGID_13_);}
	.st15{fill:url(#SVGID_14_);}
	.st16{fill:url(#SVGID_15_);}
	.st17{fill:url(#SVGID_16_);}
	.st18{fill:url(#SVGID_17_);}
	.st19{fill:url(#SVGID_18_);}
	.st20{fill:url(#SVGID_19_);}
	.st21{fill:url(#SVGID_20_);}
	.st22{fill:url(#SVGID_21_);}
	.st23{fill:url(#SVGID_22_);}
	.st24{fill:url(#SVGID_23_);}
	.st25{fill:url(#SVGID_24_);}
</style>
<g>
	<linearGradient id="SVGID_1_" gradientUnits="userSpaceOnUse" x1="122.93" y1="78.4984" x2="135.7894" y2="113.4022">
		<stop  offset="0" style="stop-color:#AEF0EB"/>
		<stop  offset="1.309597e-02" style="stop-color:#B0F0EB"/>
		<stop  offset="0.1379" style="stop-color:#C2F4EB"/>
		<stop  offset="0.2895" style="stop-color:#CEF6EA"/>
		<stop  offset="0.4961" style="stop-color:#D5F8EA"/>
		<stop  offset="1" style="stop-color:#D7F8EA"/>
	</linearGradient>
	<path class="st0" d="M142.4,80.8c0,0,2.1,28,13.7,34.6c0,0-37.4-6.5-46.5-20.4C100.4,80.9,142.4,80.8,142.4,80.8z"/>
	
		<linearGradient id="SVGID_2_" gradientUnits="userSpaceOnUse" x1="107.8881" y1="206.346" x2="186.785" y2="125.4052" gradientTransform="matrix(0.1117 0.9937 -0.9937 0.1117 385.7382 47.5342)">
		<stop  offset="3.968250e-02" style="stop-color:#06BED8"/>
		<stop  offset="1" style="stop-color:#DEFA8E"/>
	</linearGradient>
	<path class="st1" d="M179.6,163.3c23,6.3,28.5,4.5,32.6,10.7c0.5,0.7,2.9,4.3,2.4,9c-0.4,3.7-2.4,6.6-3.7,7.8
		c-7.9,7.6-29.6-1.7-42-11.9c-2.7-2.2-10-8.2-8.5-12.4c0.6-1.7,2.5-2.6,3.8-3.2C170,160.6,176.2,162.3,179.6,163.3z"/>
	<linearGradient id="SVGID_3_" gradientUnits="userSpaceOnUse" x1="238.2755" y1="26.103" x2="252.9719" y2="23.9598">
		<stop  offset="3.968250e-02" style="stop-color:#06CFF1"/>
		<stop  offset="1" style="stop-color:#DEFA8E"/>
	</linearGradient>
	<rect x="245.8" y="8.6" class="st2" width="4.9" height="32.1"/>
	<linearGradient id="SVGID_4_" gradientUnits="userSpaceOnUse" x1="234.527" y1="63.4205" x2="260.6078" y2="33.9745">
		<stop  offset="3.968250e-02" style="stop-color:#06CFF1"/>
		<stop  offset="1" style="stop-color:#DEFA8E"/>
	</linearGradient>
	<path class="st3" d="M265.2,58.5h-33.8c-2.5,0-4.5-2-4.5-4.5V41.9c0-2.5,2-4.5,4.5-4.5h33.8c2.5,0,4.5,2,4.5,4.5V54
		C269.7,56.5,267.7,58.5,265.2,58.5z"/>
	<linearGradient id="SVGID_5_" gradientUnits="userSpaceOnUse" x1="196.7513" y1="165.4159" x2="300.0997" y2="62.0674">
		<stop  offset="3.968250e-02" style="stop-color:#06CFF1"/>
		<stop  offset="1" style="stop-color:#DEFA8E"/>
	</linearGradient>
	<path class="st4" d="M325,128.7c0,19.5-15.8,35.4-35.4,35.4h-82.7c-19.4,0-35.4-15.9-35.4-35.4v-18.4c0-34.6,28.3-62.9,62.9-62.9
		H262c34.6,0,62.9,28.3,62.9,62.9V128.7z"/>
	<linearGradient id="SVGID_6_" gradientUnits="userSpaceOnUse" x1="247.9877" y1="126.7601" x2="248.9061" y2="85.4266">
		<stop  offset="0" style="stop-color:#030D14"/>
		<stop  offset="1" style="stop-color:#0B2F45"/>
	</linearGradient>
	<path class="st5" d="M300.8,125.4L300.8,125.4c-2,1-4.3,1.5-6.5,1.5h-92.1c-2.3,0-4.5-0.5-6.5-1.5l0,0c-4.9-2.4-7.7-7.4-7-12.4
		l0.1-0.4c2.4-17.1,17.8-30.2,36.8-31.2c8-0.4,16.5-0.6,25.3-0.6c6.9,0,13.5,0.2,20,0.6c19.1,1,34.7,14.1,37,31.2
		c0,0.1,0,0.2,0.1,0.4C308.5,118,305.8,123,300.8,125.4z"/>
	<g>
		<radialGradient id="SVGID_7_" cx="223.9984" cy="105.783" r="17.1784" gradientUnits="userSpaceOnUse">
			<stop  offset="0.1296" style="stop-color:#3280FC"/>
			<stop  offset="1" style="stop-color:#000000"/>
		</radialGradient>
		<circle class="st6" cx="224" cy="105.8" r="17.4"/>
		<g>
			<circle class="st7" cx="224" cy="105.8" r="12.5"/>
		</g>
		<g>
			<linearGradient id="SVGID_8_" gradientUnits="userSpaceOnUse" x1="213.534" y1="105.783" x2="234.4628" y2="105.783">
				<stop  offset="0" style="stop-color:#030D14"/>
				<stop  offset="1" style="stop-color:#0B2F45"/>
			</linearGradient>
			<circle class="st8" cx="224" cy="105.8" r="10.5"/>
		</g>
		<g>
			<path class="st7" d="M230.7,103.1c0,2.1-1.7,3.9-3.9,3.9c-2.1,0-3.9-1.7-3.9-3.9s1.7-3.9,3.9-3.9
				C229,99.2,230.7,100.9,230.7,103.1z"/>
		</g>
		<g>
			<circle class="st7" cx="222.5" cy="113.8" r="1.5"/>
		</g>
		<g>
			<path class="st7" d="M218.6,111.5c0,0.4-0.3,0.8-0.8,0.8c-0.4,0-0.8-0.3-0.8-0.8c0-0.4,0.3-0.8,0.8-0.8
				C218.3,110.7,218.6,111.1,218.6,111.5z"/>
		</g>
	</g>
	<g>
		<radialGradient id="SVGID_9_" cx="270.8906" cy="105.783" r="17.1784" gradientUnits="userSpaceOnUse">
			<stop  offset="0.1296" style="stop-color:#3280FC"/>
			<stop  offset="1" style="stop-color:#000000"/>
		</radialGradient>
		<circle class="st9" cx="270.9" cy="105.8" r="17.4"/>
		<g>
			<circle class="st7" cx="270.9" cy="105.8" r="12.5"/>
		</g>
		<g>
			<linearGradient id="SVGID_10_" gradientUnits="userSpaceOnUse" x1="260.4262" y1="105.783" x2="281.355" y2="105.783">
				<stop  offset="0" style="stop-color:#030D14"/>
				<stop  offset="1" style="stop-color:#0B2F45"/>
			</linearGradient>
			<circle class="st10" cx="270.9" cy="105.8" r="10.5"/>
		</g>
		<g>
			<path class="st7" d="M277.6,103.1c0,2.1-1.7,3.9-3.9,3.9c-2.1,0-3.9-1.7-3.9-3.9s1.7-3.9,3.9-3.9
				C275.9,99.2,277.6,100.9,277.6,103.1z"/>
		</g>
		<g>
			<circle class="st7" cx="269.3" cy="113.8" r="1.5"/>
		</g>
		<g>
			<path class="st7" d="M265.5,111.5c0,0.4-0.3,0.8-0.8,0.8s-0.8-0.3-0.8-0.8c0-0.4,0.3-0.8,0.8-0.8S265.5,111.1,265.5,111.5z"/>
		</g>
	</g>
	<linearGradient id="SVGID_11_" gradientUnits="userSpaceOnUse" x1="235.0467" y1="8.3565" x2="254.496" y2="5.5201">
		<stop  offset="3.968250e-02" style="stop-color:#06CFF1"/>
		<stop  offset="1" style="stop-color:#DEFA8E"/>
	</linearGradient>
	<path class="st11" d="M254.5,6.4c0,3.5-2.8,6.3-6.3,6.3c-3.5,0-6.3-2.8-6.3-6.3c0-3.5,2.8-6.3,6.3-6.3C251.7,0.2,254.5,3,254.5,6.4
		z"/>
	<path class="st12" d="M252.6,4c0,1.1-0.9,1.9-1.9,1.9c-1.1,0-1.9-0.9-1.9-1.9c0-1.1,0.9-1.9,1.9-1.9C251.8,2.1,252.6,2.9,252.6,4z"
		/>
	<path class="st12" d="M302.3,67.6c0.1,2.9-2.3,6.4-5,6.7c-2.6,0.3-4.6-2.3-6.7-5c-2.1-2.7-6.6-9.5-4.8-11.5
		C288.1,55.3,302.1,60.7,302.3,67.6z"/>
	<circle class="st12" cx="278.8" cy="54.2" r="2.2"/>
	<path class="st12" d="M302,108.2c-0.7,0.5-5.6-9.4-18.7-18.1c-4.6-3-9.1-5.2-8.9-5.8c0.3-0.6,5.4,0.5,9.5,2.4
		C297,92.9,302.8,107.6,302,108.2z"/>
	<path class="st12" d="M268.5,43.6c-0.2,0-0.3-0.9-1-2.3c0,0-0.4-0.7-0.8-1.2c-1.3-1.8-5.8-1.8-6.1-1.8c-6.9,0.1-11.4-0.4-11.4-0.3
		c0,0,3.3,0,5.6-0.1c6.7-0.1,10.7-0.5,12.5,1.3c0.7,0.7,1.1,1.7,1.1,1.7C268.8,42.2,268.6,43.6,268.5,43.6z"/>
	<path class="st7" d="M267,134.4c-0.2,1.7-1.6,2.9-3.2,3.1l-23,2.2c-1.7,0.2-3.3-0.8-3.8-2.4c-0.2-0.7-0.4-1.4-0.5-2.2
		c0-0.2,0-0.4,0.2-0.6c0.1-0.2,0.3-0.3,0.5-0.3l29-2.8c0.2,0,0.4,0,0.6,0.2c0.2,0.1,0.3,0.3,0.3,0.5
		C267.1,132.9,267.1,133.6,267,134.4z"/>
	<linearGradient id="SVGID_12_" gradientUnits="userSpaceOnUse" x1="247.6314" y1="142.8143" x2="277.5543" y2="112.8914">
		<stop  offset="7.142860e-02" style="stop-color:#0DA9AB"/>
		<stop  offset="1" style="stop-color:#DEFA8E"/>
	</linearGradient>
	<path class="st13" d="M267,134.4c-0.7,7.1-6.4,13-13.8,13.7c-7.3,0.7-13.9-3.8-16.1-10.5c0.6,1.4,2.1,2.3,3.7,2.1l23-2.2
		C265.5,137.3,266.8,136,267,134.4z"/>
	<linearGradient id="SVGID_13_" gradientUnits="userSpaceOnUse" x1="219.3704" y1="233.6184" x2="298.6511" y2="141.039">
		<stop  offset="3.968250e-02" style="stop-color:#06CFF1"/>
		<stop  offset="4.075459e-02" style="stop-color:#06CFF1"/>
		<stop  offset="0.1607" style="stop-color:#37D9DB"/>
		<stop  offset="0.2745" style="stop-color:#5DE0CA"/>
		<stop  offset="0.3793" style="stop-color:#78E6BD"/>
		<stop  offset="0.4719" style="stop-color:#88E9B6"/>
		<stop  offset="0.5423" style="stop-color:#8EEAB3"/>
		<stop  offset="0.8004" style="stop-color:#B9F39F"/>
		<stop  offset="1" style="stop-color:#DEFA8E"/>
	</linearGradient>
	<path class="st14" d="M303.2,186c0,0.2,0,0.4,0,0.6c-0.1,1.9-0.5,3.4-0.7,4c-6.3,19.3-10.1,29.5-15.4,37.8
		c-0.9,1.4-1.9,2.8-2.9,4.1c-1.4,1.8-2.8,3.5-4.5,5.3c-3.7,4-9.2,5.8-11,6.4c-6.5,2.3-12.3,1.9-16.2,1.9h-0.7
		c-3.9,0-9.6,0.4-16.2-1.9c-1.8-0.6-7.4-2.4-11-6.4c-10.1-11-14-20.1-22.9-47.2c-0.2-0.6-0.6-2-0.7-3.8c0-0.5,0-1,0-1.6
		c0.2-3.2,1.5-6.4,3.8-9.3c4-5,10.2-7.7,16.6-7.7l30.8-0.1l30.2-0.1c6.5,0,12.8,2.7,17,7.8c2,2.4,3.3,5.1,3.7,7.8
		c0.1,0.4,0.1,0.8,0.2,1.2C303.2,185.1,303.2,185.6,303.2,186z"/>
	<linearGradient id="SVGID_14_" gradientUnits="userSpaceOnUse" x1="215.1707" y1="187.4636" x2="262.8471" y2="131.7899">
		<stop  offset="3.968250e-02" style="stop-color:#06CFF1"/>
		<stop  offset="1" style="stop-color:#DEFA8E"/>
	</linearGradient>
	<path class="st15" d="M252.1,168.1l-30.8,0.1c-6.4,0-12.6,2.8-16.6,7.7c-2.3,2.9-3.6,6.1-3.8,9.3c0.2-3.3,1.5-6.6,4-9.6
		c4.1-5,10.5-7.8,17-7.8L252.1,168.1z"/>
	
		<linearGradient id="SVGID_15_" gradientUnits="userSpaceOnUse" x1="360.9627" y1="235.7455" x2="426.1804" y2="201.7588" gradientTransform="matrix(-0.9886 -0.1505 -0.1505 0.9886 709.9376 41.0611)">
		<stop  offset="3.968250e-02" style="stop-color:#06CFF1"/>
		<stop  offset="7.336484e-02" style="stop-color:#0FD1ED"/>
		<stop  offset="0.4151" style="stop-color:#67E2C5"/>
		<stop  offset="0.6937" style="stop-color:#A7EFA7"/>
		<stop  offset="0.8955" style="stop-color:#CFF795"/>
		<stop  offset="1" style="stop-color:#DEFA8E"/>
	</linearGradient>
	<path class="st16" d="M282.7,213.4c-0.4-23.9-3.7-28.6,1.1-34.3c0.5-0.7,3.3-4,7.9-4.8c3.7-0.7,7,0.5,8.6,1.4
		c9.5,5.4,6.7,28.9,0.4,43.7c-1.4,3.2-5.1,11.9-9.5,11.7c-1.8-0.1-3.2-1.6-4.1-2.7C282.8,223.4,282.7,217,282.7,213.4z"/>
	<linearGradient id="SVGID_16_" gradientUnits="userSpaceOnUse" x1="265.2989" y1="215.5839" x2="307.3672" y2="193.661">
		<stop  offset="3.968250e-02" style="stop-color:#06BED8"/>
		<stop  offset="1" style="stop-color:#DEFA8E"/>
	</linearGradient>
	<path class="st17" d="M287,228.4c-0.9,1.4-1.9,2.8-2.9,4.1c-0.3-0.3-0.6-0.7-0.9-1c-4.2-4.9-4.3-11.3-4.3-14.9
		c-0.5-23.9-3.7-28.6,1.1-34.3c0.3-0.4,1.6-1.9,3.7-3.2c-4.7,5.7-1.5,10.4-1,34.2C282.7,217,282.8,223.4,287,228.4
		C287,228.4,287,228.4,287,228.4z"/>
	<path class="st12" d="M300.5,193.6c-0.1-2.6-0.6-4.4-1.6-8.2c-1.3-4.9-2.8-7.3-1.8-8.3c0.7-0.6,2-0.2,2.3-0.1
		c4.5,1.4,5.9,9.9,5.7,15.2c-0.1,3.2-0.9,6.9-2.1,7c-0.2,0-0.7,0-1-0.3C300.7,197.7,300.6,195.5,300.5,193.6z"/>
	<path class="st12" d="M303.6,202.6c0,0.5-0.4,0.9-0.9,0.9c-0.5,0-0.9-0.4-0.9-0.9s0.4-0.9,0.9-0.9
		C303.2,201.7,303.6,202.1,303.6,202.6z"/>
	
		<radialGradient id="SVGID_17_" cx="249.9386" cy="140.6693" r="48.488" gradientTransform="matrix(1.012 0 0 0.4143 -2.229 210.9802)" gradientUnits="userSpaceOnUse">
		<stop  offset="0" style="stop-color:#BCD7D6"/>
		<stop  offset="1" style="stop-color:#FFFFFF"/>
	</radialGradient>
	<ellipse class="st18" cx="250.7" cy="269.3" rx="49.1" ry="20.1"/>
	<linearGradient id="SVGID_18_" gradientUnits="userSpaceOnUse" x1="0" y1="47.4569" x2="161.974" y2="47.4569">
		<stop  offset="0" style="stop-color:#D7F8EA"/>
		<stop  offset="0.5053" style="stop-color:#ECF8F2"/>
		<stop  offset="1" style="stop-color:#D7F8EA"/>
	</linearGradient>
	<path class="st19" d="M114.5,94.9H47.5C21.4,94.9,0,73.6,0,47.5v0C0,21.4,21.4,0,47.5,0h67.1C140.6,0,162,21.4,162,47.5v0
		C162,73.6,140.6,94.9,114.5,94.9z"/>
	<g>
		
			<linearGradient id="SVGID_19_" gradientUnits="userSpaceOnUse" x1="25.9428" y1="49.6588" x2="156.6896" y2="21.8975" gradientTransform="matrix(0.9989 -4.590000e-02 4.590000e-02 0.9989 -2.6567 4.7742)">
			<stop  offset="3.968250e-02" style="stop-color:#06CFF1"/>
			<stop  offset="1" style="stop-color:#DEFA8E"/>
		</linearGradient>
		<path class="st20" d="M50.9,65.6c0,0.5-1.6,0.9-4.8,1c-3.2,0.1-4.9,0-4.9-0.6L40.7,55l-6.7,0.3l0.5,11.1c0,0.5-1.6,0.9-4.8,1
			c-3.2,0.1-4.9,0-4.9-0.6l-1.5-31.9c0-0.7,1.6-1.1,4.8-1.2c3.2-0.1,4.9,0.1,4.9,0.8l0.5,11.3l6.7-0.3l-0.5-11.2
			c0-0.4,0.8-0.8,2.4-1.1c0.8-0.1,1.6-0.2,2.5-0.2l2.5,0c1.6,0.1,2.4,0.4,2.5,0.9L50.9,65.6z"/>
		
			<linearGradient id="SVGID_20_" gradientUnits="userSpaceOnUse" x1="28.1517" y1="60.0615" x2="158.8996" y2="32.3" gradientTransform="matrix(0.9989 -4.590000e-02 4.590000e-02 0.9989 -2.6567 4.7742)">
			<stop  offset="3.968250e-02" style="stop-color:#06CFF1"/>
			<stop  offset="1" style="stop-color:#DEFA8E"/>
		</linearGradient>
		<path class="st21" d="M73.7,64.1c-2,1.3-4.5,2-7.7,2.1c-3.2,0.1-5.9-0.8-8.2-2.9c-2.3-2.1-3.5-5-3.7-8.9c-0.2-3.8,0.7-7,2.7-9.4
			c2-2.4,4.6-3.7,7.8-3.9c3.2-0.1,5.7,0.6,7.6,2.1c1.8,1.6,2.8,3.5,2.9,5.9c0.2,5.2-2.6,7.9-8.6,8.2l-3.3,0.2c0,1,0.3,1.6,0.9,2
			c0.5,0.3,1.3,0.5,2.4,0.4c2.2-0.1,4.4-0.7,6.3-1.8c0,0,0.2,0.2,0.5,0.7c0.8,1.3,1.3,2.5,1.3,3.4C74.5,63.1,74.3,63.8,73.7,64.1z
			 M67,50.4c-0.1-1.3-0.8-2-2.1-1.9c-0.6,0-1.1,0.2-1.5,0.6c-0.4,0.4-0.6,0.9-0.6,1.6l0.1,1.5l2.6-0.1C66.6,52.1,67.1,51.5,67,50.4z
			"/>
		
			<linearGradient id="SVGID_21_" gradientUnits="userSpaceOnUse" x1="27.9091" y1="58.9114" x2="158.6535" y2="31.1507" gradientTransform="matrix(0.9989 -4.590000e-02 4.590000e-02 0.9989 -2.6567 4.7742)">
			<stop  offset="3.968250e-02" style="stop-color:#06CFF1"/>
			<stop  offset="1" style="stop-color:#DEFA8E"/>
		</linearGradient>
		<path class="st22" d="M87.7,64.4c0,0.3-1.6,0.5-4.9,0.7c-2.6,0.1-3.9,0-3.9-0.2L77.4,32c0-0.5,1.5-0.8,4.6-0.9
			c2.7,0,4.1,0.1,4.1,0.3L87.7,64.4z"/>
		
			<linearGradient id="SVGID_22_" gradientUnits="userSpaceOnUse" x1="28.4757" y1="61.576" x2="159.2195" y2="33.8153" gradientTransform="matrix(0.9989 -4.590000e-02 4.590000e-02 0.9989 -2.6567 4.7742)">
			<stop  offset="3.968250e-02" style="stop-color:#06CFF1"/>
			<stop  offset="1" style="stop-color:#DEFA8E"/>
		</linearGradient>
		<path class="st23" d="M100.8,63.8c0,0.3-1.6,0.5-4.9,0.7c-2.6,0.1-3.9,0-3.9-0.2l-1.5-32.8c0-0.5,1.5-0.8,4.6-0.9
			c2.7,0,4.1,0.1,4.1,0.3L100.8,63.8z"/>
		
			<linearGradient id="SVGID_23_" gradientUnits="userSpaceOnUse" x1="30.2693" y1="70.0336" x2="161.0176" y2="42.272" gradientTransform="matrix(0.9989 -4.590000e-02 4.590000e-02 0.9989 -2.6567 4.7742)">
			<stop  offset="3.968250e-02" style="stop-color:#06CFF1"/>
			<stop  offset="1" style="stop-color:#DEFA8E"/>
		</linearGradient>
		<path class="st24" d="M107.1,61c-2.1-2.1-3.3-5.1-3.4-9.1c-0.2-3.9,0.7-7,2.6-9.3c1.9-2.3,4.6-3.5,8-3.7c3.4-0.2,6.2,0.8,8.2,3
			c2.1,2.1,3.2,5.1,3.4,9.1c0.2,3.9-0.7,7-2.6,9.3c-1.9,2.3-4.5,3.5-7.9,3.7C112,64.1,109.2,63.1,107.1,61z M114.6,47
			c-1.8,0.1-2.7,1.6-2.5,4.6c0.1,3,1.1,4.4,2.9,4.3c1.8-0.1,2.7-1.6,2.5-4.6C117.4,48.3,116.4,46.9,114.6,47z"/>
		
			<linearGradient id="SVGID_24_" gradientUnits="userSpaceOnUse" x1="30.0746" y1="69.0999" x2="160.8184" y2="41.3393" gradientTransform="matrix(0.9989 -4.590000e-02 4.590000e-02 0.9989 -2.6567 4.7742)">
			<stop  offset="3.968250e-02" style="stop-color:#06CFF1"/>
			<stop  offset="1" style="stop-color:#DEFA8E"/>
		</linearGradient>
		<path class="st25" d="M129.5,55.6c0-0.2,1.5-0.4,4.4-0.5c3-0.1,4.5-0.1,4.5,0.1l0.3,6.9c0,0.3-1.5,0.6-4.4,0.7
			c-3,0.1-4.5,0.1-4.5-0.1L129.5,55.6z M137.3,52.3c0,0.2-1.1,0.3-3.4,0.4c-2.3,0.1-3.4,0.1-3.5-0.1L128.4,29c0-0.3,1.5-0.5,4.4-0.6
			c2.9-0.1,4.4-0.1,4.4,0.1L137.3,52.3z"/>
	</g>
	<path class="st12" d="M136.1,47.7c0,0-1.9-17.2-1-17.7C136.1,29.6,136.5,39,136.1,47.7z"/>
	<path class="st12" d="M138,56.4c0,0.6-0.5,1-1,1c-0.6,0-1-0.5-1-1c0-0.6,0.5-1,1-1C137.5,55.4,138,55.8,138,56.4z"/>
	<path class="st12" d="M124.5,48.9c0-1-0.1-3.7-2.1-5.9c-1.7-1.9-4-2.5-5-2.4c-0.2,0-0.9,0.1-0.9,0.4c-0.1,0.6,2.7,1,4.7,2.5
		C122.3,44.4,123.6,45.9,124.5,48.9z"/>
	<path class="st12" d="M97.7,31.1c1.1,0,1.5,19.3,1.2,22.8C98.6,57.3,97.3,31.1,97.7,31.1z"/>
	<path class="st12" d="M73.9,47.6c-0.5-2.6-3.4-5.5-5.3-5.1c-1.9,0.5,2.2,1.9,3.7,3.1C73.7,46.9,73.9,47.6,73.9,47.6z"/>
	<path class="st12" d="M57.6,62.4c2.2,2.4,5.2,2.9,5.3,2.8c0-0.1-3.4-0.6-5.2-3.3c-0.8-1.3-1.7-3.6-2.2-3.6c0,0,0,0-0.1,0
		C55.1,58.5,56.2,60.9,57.6,62.4z"/>
	<path class="st12" d="M49.7,62c-0.7,0.9-0.8-23.4-1.2-25.8c0,0,0,0,0-0.2c0-0.2,0-0.5,0-1.1c0-0.1-0.1-0.6-0.2-0.7
		c-0.9-0.8-4.9-0.4-3.2-0.6c1.5-0.2,3.2,0,3.7,0.1c0.2,0.1,0.2,0.4,0.2,0.6C49.8,39.1,50.6,60.7,49.7,62z"/>
</g>
<path class="st12" d="M156,35.7c-1.1,0.8-8.4-13.4-26.7-23.2c-10.3-5.5-18.7-6.7-18.5-7.7c0.3-1.2,12.3-1.6,23.2,3.9
	C150.3,16.9,157.2,34.8,156,35.7z"/>
<circle class="st12" cx="157.4" cy="41.2" r="1.3"/>
<ellipse class="st12" cx="59.2" cy="5.1" rx="8.8" ry="2"/>
<path class="st12" d="M78.7,5.1c0,0.6-1.1,1.1-2.4,1.1C75,6.1,74,5.7,74,5.1C74,4.5,75,4,76.4,4C77.7,4,78.7,4.5,78.7,5.1z"/>
<path class="st12" d="M32.6,40.4c0.2,3.1,0.1,5.6-0.1,5.6c-0.2,0-0.5-2.5-0.7-5.5c-0.2-3.1-0.1-5.6,0.1-5.6
	C32.1,34.8,32.4,37.3,32.6,40.4z"/>
<path class="st12" d="M144.6,101c1.4,4,2.9,6.4,2.6,6.6c-0.4,0.2-3-2.3-4.5-5.7c-2.7-5.9-1.2-12.2-0.7-12.3
	C142.5,89.7,142.2,94.2,144.6,101z"/>
</svg>
